<?xml version="1.0" encoding="UTF-8" standalone="no"?>
<!-- Created with Inkscape (http://www.inkscape.org/) -->
<svg
   xmlns:dc="http://purl.org/dc/elements/1.1/"
   xmlns:cc="http://creativecommons.org/ns#"
   xmlns:rdf="http://www.w3.org/1999/02/22-rdf-syntax-ns#"
   xmlns:svg="http://www.w3.org/2000/svg"
   xmlns="http://www.w3.org/2000/svg"
   xmlns:sodipodi="http://sodipodi.sourceforge.net/DTD/sodipodi-0.dtd"
   xmlns:inkscape="http://www.inkscape.org/namespaces/inkscape"
   width="1200"
   height="720"
   id="svg2"
   sodipodi:version="0.32"
   inkscape:version="0.46"
   sodipodi:docname="request_create.svg"
   inkscape:output_extension="org.inkscape.output.svg.inkscape"
   version="1.0"
   inkscape:export-filename="/home/hughes/request_create.png"
   inkscape:export-xdpi="160"
   inkscape:export-ydpi="160">
  <defs
     id="defs4">
    <marker
       inkscape:stockid="Arrow2Lend"
       orient="auto"
       refY="0"
       refX="0"
       id="Arrow2Lend"
       style="overflow:visible">
      <path
         id="path3551"
         style="font-size:12px;fill-rule:evenodd;stroke-width:0.625;stroke-linejoin:round"
         d="M 8.7185878,4.0337352 L -2.2072895,0.016013256 L 8.7185884,-4.0017078 C 6.97309,-1.6296469 6.9831476,1.6157441 8.7185878,4.0337352 z"
         transform="matrix(-1.1,0,0,-1.1,-1.1,0)" />
    </marker>
    <marker
       inkscape:stockid="Arrow1Lend"
       orient="auto"
       refY="0"
       refX="0"
       id="Arrow1Lend"
       style="overflow:visible">
      <path
         id="path3533"
         d="M 0,0 L 5,-5 L -12.5,0 L 5,5 L 0,0 z"
         style="fill-rule:evenodd;stroke:#000000;stroke-width:1pt;marker-start:none"
         transform="matrix(-0.8,0,0,-0.8,-10,0)" />
    </marker>
    <marker
       inkscape:stockid="DiamondL"
       orient="auto"
       refY="0"
       refX="0"
       id="DiamondL"
       style="overflow:visible">
      <path
         id="path3610"
         d="M 0,-7.0710768 L -7.0710894,0 L 0,7.0710589 L 7.0710462,0 L 0,-7.0710768 z"
         style="fill-rule:evenodd;stroke:#000000;stroke-width:1pt;marker-start:none"
         transform="scale(0.8,0.8)" />
    </marker>
    <inkscape:perspective
       sodipodi:type="inkscape:persp3d"
       inkscape:vp_x="-4.6144687e-05 : 629.03824 : 1"
       inkscape:vp_y="6.123234e-14 : 1000 : 0"
       inkscape:vp_z="-190.19124 : 751.89538 : 1"
       inkscape:persp3d-origin="372.04724 : 350.78739 : 1"
       id="perspective10" />
    <inkscape:perspective
       id="perspective2449"
       inkscape:persp3d-origin="372.04724 : 350.78739 : 1"
       inkscape:vp_z="744.09448 : 526.18109 : 1"
       inkscape:vp_y="0 : 1000 : 0"
       inkscape:vp_x="0 : 526.18109 : 1"
       sodipodi:type="inkscape:persp3d" />
    <inkscape:perspective
       id="perspective3391"
       inkscape:persp3d-origin="372.04724 : 350.78739 : 1"
       inkscape:vp_z="744.09448 : 526.18109 : 1"
       inkscape:vp_y="0 : 1000 : 0"
       inkscape:vp_x="0 : 526.18109 : 1"
       sodipodi:type="inkscape:persp3d" />
  </defs>
  <sodipodi:namedview
     id="base"
     pagecolor="#ffffff"
     bordercolor="#666666"
     borderopacity="1.0"
     gridtolerance="10000"
     guidetolerance="10"
     objecttolerance="10"
     inkscape:pageopacity="0.0"
     inkscape:pageshadow="2"
     inkscape:zoom="0.70000001"
     inkscape:cx="226.41047"
     inkscape:cy="431.3332"
     inkscape:document-units="px"
     inkscape:current-layer="layer1"
     showgrid="false"
     inkscape:window-width="1919"
     inkscape:window-height="1151"
     inkscape:window-x="0"
     inkscape:window-y="24" />
  <metadata
     id="metadata7">
    <rdf:RDF>
      <cc:Work
         rdf:about="">
        <dc:format>image/svg+xml</dc:format>
        <dc:type
           rdf:resource="http://purl.org/dc/dcmitype/StillImage" />
      </cc:Work>
    </rdf:RDF>
  </metadata>
  <g
     inkscape:label="Layer 1"
     inkscape:groupmode="layer"
     id="layer1">
    <text
       xml:space="preserve"
       style="font-size:40px;font-style:normal;font-weight:normal;fill:#000000;fill-opacity:1;stroke:none;stroke-width:1px;stroke-linecap:butt;stroke-linejoin:miter;stroke-opacity:1;font-family:Bitstream Vera Sans"
       x="38.57143"
       y="548.07648"
       id="text3431"><tspan
         sodipodi:role="line"
         id="tspan3433"
         x="38.57143"
         y="548.07648" /></text>
    <path
       style="opacity:0.25;fill:#000000;fill-opacity:1;fill-rule:evenodd;stroke:#000000;stroke-width:10;stroke-linecap:butt;stroke-linejoin:miter;marker-start:none;marker-end:url(#Arrow2Lend);stroke-miterlimit:4;stroke-dasharray:none;stroke-opacity:1;display:inline"
       d="M 525.71429,261.52305 L 595.71429,264.38019"
       id="path3525"
       inkscape:connector-type="polyline" />
    <g
       id="g3286"
       transform="translate(33.826685,8.403338)">
      <path
         id="path6529"
         d="M 8.5207185,108.09665 L 8.5207185,7.5966562 L 133.52072,7.5966562 L 258.52072,7.5966562 L 258.52072,108.09665 L 258.52072,208.59665 L 133.52072,208.59665 L 8.5207185,208.59665 L 8.5207185,108.09665 z M 256.52072,206.50521 C 255.39191,205.7069 255.33004,205.31888 256.27072,204.93719 C 257.25798,204.5366 257.52072,185.10948 257.52072,112.51332 L 257.52072,20.596656 L 133.52072,20.596656 L 9.5207185,20.596656 L 9.5207185,25.096656 L 9.5207185,29.596656 L 45.770719,29.597312 L 82.020719,29.597968 L 82.020719,25.847312 L 82.020719,22.096656 L 145.02072,22.096656 L 208.02072,22.096656 L 208.02072,25.596656 L 208.02072,29.096656 L 232.52072,29.623033 C 245.99572,29.912541 203.02072,30.263725 137.02072,30.403442 C 46.938819,30.594139 17.519354,30.940231 19.020719,31.791601 C 21.570988,33.237768 22.486218,34.610424 22.505406,37.017915 C 22.546438,42.166045 15.027518,44.586001 12.077423,40.37415 C 9.8456205,37.187806 10.146725,35.036 13.155578,32.669236 L 15.790436,30.596656 L 12.655578,30.596656 L 9.5207185,30.596656 L 9.5207185,119.09665 L 9.5207185,207.59665 L 133.77072,207.58134 C 221.63294,207.57051 257.58143,207.25535 256.52072,206.50521 z M 246.96308,205.50339 C 246.08027,204.07497 248.99676,201.15479 250.42476,202.03734 C 252.07181,203.05527 251.74931,204.40395 249.58141,205.56417 C 248.21727,206.29424 247.44071,206.27621 246.96308,205.50339 z M 11.520719,204.09665 C 11.520719,202.98554 12.687386,202.59665 16.020719,202.59665 C 19.354052,202.59665 20.520719,202.98554 20.520719,204.09665 C 20.520719,205.20776 19.354052,205.59665 16.020719,205.59665 C 12.687386,205.59665 11.520719,205.20776 11.520719,204.09665 z M 106.52072,128.45592 C 105.22494,127.28171 105.09422,122.73994 105.5606,95.09666 L 106.10049,63.09666 L 106.3106,93.8276 L 106.52072,124.55855 L 109.21214,125.23405 C 112.33134,126.01692 169.16404,124.93513 170.57012,124.06612 C 171.14004,123.71389 171.3414,111.5776 171.08074,93.2906 C 170.6314,61.76737 171.59995,69.95696 172.90648,108.72824 L 173.53434,127.35983 L 171.27753,128.00098 C 170.03628,128.35362 155.29572,128.90608 138.52072,129.22867 C 113.59373,129.70802 107.74664,129.56682 106.52072,128.45592 z M 109.53603,97.84666 C 109.58075,95.65625 111.39274,94.52643 113.86558,95.14707 C 117.84959,96.147 117.24963,98.59666 113.02072,98.59666 C 111.09572,98.59666 109.52761,98.25916 109.53603,97.84666 z M 117.52072,96.7343 C 117.52072,95.07886 118.2707,94.89769 124.27072,95.10374 C 132.82533,95.3975 132.52072,95.32392 132.52072,97.09666 C 132.52072,98.29666 131.02072,98.59666 125.02072,98.59666 C 118.37215,98.59666 117.52072,98.38523 117.52072,96.7343 z M 110.2432,84.9858 C 109.02491,83.76751 110.72736,81.83793 112.59063,82.32519 C 113.65804,82.60432 115.20398,82.27449 116.02605,81.59224 C 117.0611,80.73322 117.52072,80.69693 117.52072,81.47421 C 117.52072,82.09156 118.08322,82.48416 118.77072,82.34666 C 119.45822,82.20916 120.02072,82.74842 120.02072,83.54502 C 120.02072,84.55758 118.63769,85.0802 115.4243,85.28193 C 112.89627,85.44063 110.56477,85.30737 110.2432,84.9858 z M 121.68783,83.98311 C 121.88563,82.96537 123.03528,82.21037 124.52072,82.12269 C 125.89572,82.04153 128.03322,81.63465 129.27072,81.2185 C 130.70812,80.73514 131.52072,80.86321 131.52072,81.5731 C 131.52072,82.18428 132.08322,82.61129 132.77072,82.52201 C 135.74268,82.13608 137.42528,82.6818 136.96464,83.88221 C 136.63628,84.7379 133.94405,85.25607 128.91314,85.43186 C 122.23469,85.66523 121.39369,85.4966 121.68783,83.98311 z M 138.5252,83.90567 C 138.51768,81.90665 140.73954,81.14483 147.27072,80.90707 C 153.67505,80.67392 154.62455,81.34121 152.52072,84.59666 C 151.75051,85.78846 151.54092,85.583 151.5006,83.59666 L 151.44985,81.09666 L 150.02072,83.59666 C 148.78864,85.75195 148.5867,85.82901 148.55616,84.15553 C 148.52384,82.38514 148.41077,82.36007 147.27072,83.87053 C 145.81397,85.80059 138.53245,85.82985 138.5252,83.90567 z M 111.26405,71.14255 C 108.60974,69.18598 110.4084,67.77267 114.82013,68.34833 C 118.50523,68.82918 120.4622,69.94793 120.50224,71.59666 C 120.5257,72.56284 112.66678,72.17653 111.26405,71.14255 z M 121.52072,70.56527 C 121.52072,69.16393 122.96598,68.79825 130.27072,68.35138 C 135.78073,68.0143 136.52072,68.18379 136.52072,69.78285 C 136.52072,71.37336 135.59742,71.59666 129.02072,71.59666 C 124.53524,71.59666 121.52072,71.18211 121.52072,70.56527 z M 137.52072,69.79364 C 137.52072,68.34796 138.31345,68.00113 141.52057,68.04364 C 144.84133,68.08765 145.51784,68.43621 145.50525,70.09666 C 145.49269,71.7542 145.32411,71.83981 144.52072,70.59666 C 143.87447,69.59666 143.54624,69.51332 143.53603,70.34666 C 143.52723,71.06547 142.24589,71.59666 140.52072,71.59666 C 138.29664,71.59666 137.52072,71.13032 137.52072,69.79364 z M 150.52072,69.53739 C 150.52072,67.65571 151.00538,67.47663 155.26032,67.78611 C 158.58772,68.02812 160.09016,68.59946 160.30281,69.70364 C 160.54252,70.94837 159.55387,71.31367 155.56321,71.45492 C 151.05363,71.61453 150.52072,71.41188 150.52072,69.53739 z M 166.52072,63.59666 C 166.52072,63.04666 167.19572,62.59666 168.02072,62.59666 C 168.84572,62.59666 169.52072,63.04666 169.52072,63.59666 C 169.52072,64.14666 168.84572,64.59666 168.02072,64.59666 C 167.19572,64.59666 166.52072,64.14666 166.52072,63.59666 z M 245.71846,38.346656 L 246.02072,33.096656 L 250.77072,32.791865 L 255.52072,32.487074 L 255.52072,38.041865 L 255.52072,43.596656 L 250.46846,43.596656 L 245.4162,43.596656 L 245.71846,38.346656 z M 12.50328,27.075643 C 10.852892,25.087047 12.863741,22.612092 15.557487,23.316522 C 18.053094,23.969138 18.089487,26.221893 15.625724,27.540459 C 14.218737,28.293455 13.414631,28.173754 12.50328,27.075643 z M 36.882345,27.096656 C 36.012355,24.829497 37.301648,22.407511 39.184085,22.772749 C 40.137895,22.957811 41.011169,24.27546 41.22132,25.846656 C 41.519743,28.077812 41.199423,28.596656 39.523545,28.596656 C 38.387467,28.596656 37.198928,27.921656 36.882345,27.096656 z M 46.229568,27.972172 C 44.940784,26.683388 45.493615,22.544287 47.033454,21.953396 C 49.158411,21.137973 51.67471,23.519362 51.318976,26.009151 C 51.023251,28.078937 47.640922,29.383526 46.229568,27.972172 z M 55.188671,26.434904 C 54.554125,24.008397 56.029871,22.425802 58.520719,22.861604 C 59.381479,23.012204 60.020719,24.18361 60.020719,25.610351 C 60.020719,29.023219 56.043031,29.701982 55.188671,26.434904 z M 73.720719,27.396656 C 71.986139,25.66208 72.244869,23.814656 74.382579,22.670586 C 77.082189,21.225798 79.988009,23.548983 79.075879,26.422852 C 78.321699,28.799075 75.615279,29.29122 73.720719,27.396656 z M 76.917709,25.763323 C 77.200979,25.304989 76.777539,24.929989 75.976729,24.929989 C 75.175919,24.929989 74.520719,25.304989 74.520719,25.763323 C 74.520719,26.221656 74.944159,26.596656 75.461699,26.596656 C 75.979239,26.596656 76.634449,26.221656 76.917709,25.763323 z M 209.90476,27.155069 C 209.60051,26.362197 209.50829,24.899697 209.69984,23.905069 C 210.02377,22.223068 211.6549,22.096656 233.03442,22.096656 L 256.02072,22.096656 L 256.33408,25.346656 L 256.64744,28.596656 L 233.55269,28.596656 C 214.36244,28.596656 210.36443,28.352936 209.90476,27.155069 z M 219.52072,26.763323 C 219.52072,26.304989 218.84572,25.929989 218.02072,25.929989 C 217.19572,25.929989 216.52072,26.304989 216.52072,26.763323 C 216.52072,27.221656 217.19572,27.596656 218.02072,27.596656 C 218.84572,27.596656 219.52072,27.221656 219.52072,26.763323 z M 226.77072,26.890923 C 223.12298,26.188338 224.19531,25.027317 228.52072,24.996176 C 232.60636,24.966761 233.92159,26.083922 230.77072,26.90733 C 229.80822,27.158858 234.64572,27.40317 241.52072,27.450246 C 250.69874,27.513092 253.54091,27.256709 252.21527,26.485525 C 250.78911,25.655865 250.65727,25.137045 251.58771,24.015934 C 252.59667,22.800211 250.4533,22.596656 236.64316,22.596656 L 220.52072,22.596656 L 220.52072,25.096656 C 220.52072,27.392528 220.86774,27.585537 224.77072,27.460474 C 227.10822,27.385574 228.00822,27.129276 226.77072,26.890923 z M 221.52072,25.537639 C 221.52072,24.95518 221.97072,24.756737 222.52072,25.096656 C 223.07072,25.436575 223.52072,25.913132 223.52072,26.155673 C 223.52072,26.398214 223.07072,26.596656 222.52072,26.596656 C 221.97072,26.596656 221.52072,26.120098 221.52072,25.537639 z M 255.52072,24.096656 C 255.52072,23.271656 255.08484,22.596656 254.5521,22.596656 C 254.01937,22.596656 253.84251,23.271656 254.15909,24.096656 C 254.47568,24.921656 254.91155,25.596656 255.12771,25.596656 C 255.34386,25.596656 255.52072,24.921656 255.52072,24.096656 z M 219.52072,23.596656 C 219.52072,23.046656 218.59416,22.596656 217.4617,22.596656 C 216.32924,22.596656 215.6808,23.046656 216.02072,23.596656 C 216.36064,24.146656 217.2872,24.596656 218.07974,24.596656 C 218.87228,24.596656 219.52072,24.146656 219.52072,23.596656 z M 22.770719,26.934375 C 21.076298,26.250662 21.187705,23.938423 22.947606,23.263086 C 24.650073,22.609788 26.965934,25.067266 26.047792,26.552851 C 25.359698,27.66621 24.758001,27.736261 22.770719,26.934375 z M 63.520719,25.596656 C 63.520719,24.496656 64.158915,23.596656 64.938932,23.596656 C 65.718948,23.596656 67.011499,23.345556 67.811269,23.038657 C 68.792669,22.662055 69.424359,23.312229 69.754379,25.038657 C 70.200489,27.372301 69.948559,27.596656 66.882047,27.596656 C 64.187386,27.596656 63.520719,27.199987 63.520719,25.596656 z M 68.520719,24.155092 C 68.520719,23.950934 67.620719,24.019251 66.520719,24.306907 C 65.420719,24.594563 64.520719,25.243267 64.520719,25.748471 C 64.520719,26.255936 65.415796,26.187993 66.520719,25.596656 C 67.620719,25.007954 68.520719,24.35925 68.520719,24.155092 z M 31.020719,25.596656 C 30.6808,25.046656 31.1308,24.596656 32.020719,24.596656 C 32.910638,24.596656 33.360638,25.046656 33.020719,25.596656 C 32.6808,26.146656 32.2308,26.596656 32.020719,26.596656 C 31.810638,26.596656 31.360638,26.146656 31.020719,25.596656 z M 17.895719,37.79891 C 18.166888,37.36015 17.968445,36.34765 17.454736,35.54891 C 16.638147,34.279238 16.403292,34.279238 15.586702,35.54891 C 14.595013,37.090835 15.056489,38.596656 16.520719,38.596656 C 17.0058,38.596656 17.62455,38.23767 17.895719,37.79891 z M 200.52072,25.596656 L 200.52072,22.596656 L 144.9617,22.596656 C 104.41239,22.596656 89.588539,22.897379 90.090639,23.709793 C 90.517059,24.399746 92.820529,24.653598 96.149659,24.377521 C 99.605179,24.090962 101.52618,24.318093 101.53603,25.014383 C 101.54597,25.716466 101.80943,25.745367 102.28603,25.096656 C 103.44512,23.519003 105.52072,23.455084 105.52072,24.997042 C 105.52072,25.932515 104.52475,26.328475 102.52072,26.189733 C 100.87072,26.0755 99.520719,26.324734 99.520719,26.743585 C 99.520719,27.398596 95.120149,27.188231 91.425559,26.356604 C 90.790399,26.213633 90.064469,26.659156 89.812389,27.346656 C 89.449199,28.337161 100.89294,28.596656 144.93739,28.596656 L 200.52072,28.596656 L 200.52072,25.596656 z M 115.70021,26.808197 C 109.30968,26.610418 106.4984,26.163611 106.75732,25.386871 C 107.22567,23.981813 111.3943,23.583082 112.18806,24.867418 C 112.51455,25.395691 113.14869,25.213674 113.63041,24.453419 C 114.31523,23.372624 114.49321,23.362913 114.50541,24.405673 C 114.51466,25.196333 115.01526,25.40905 115.76958,24.942852 C 118.07458,23.518286 124.63687,23.73577 125.22026,25.256062 C 125.52141,26.040829 125.5997,26.776005 125.39426,26.889784 C 125.18881,27.003564 120.82649,26.966849 115.70021,26.808197 z M 83.213709,23.865688 C 82.960169,22.89272 82.736049,23.446656 82.715669,25.096656 C 82.695289,26.746656 82.902729,27.54272 83.176659,26.865688 C 83.450579,26.188655 83.467249,24.838655 83.213709,23.865688 z M 88.520719,25.096656 C 88.520719,23.721656 88.133119,22.596656 87.659389,22.596656 C 87.185659,22.596656 87.013119,23.721656 87.275969,25.096656 C 87.538819,26.471656 87.926409,27.596656 88.137299,27.596656 C 88.348179,27.596656 88.520719,26.471656 88.520719,25.096656 z M 207.52072,25.096656 C 207.52072,22.985545 207.05405,22.596656 204.52072,22.596656 C 201.98739,22.596656 201.52072,22.985545 201.52072,25.096656 C 201.52072,27.207767 201.98739,27.596656 204.52072,27.596656 C 207.05405,27.596656 207.52072,27.207767 207.52072,25.096656 z M 203.52072,25.596656 C 203.52072,25.046656 204.22228,24.596656 205.07974,24.596656 C 205.9372,24.596656 206.36064,25.046656 206.02072,25.596656 C 205.6808,26.146656 204.97924,26.596656 204.4617,26.596656 C 203.94416,26.596656 203.52072,26.146656 203.52072,25.596656 z M 12.520719,15.325548 C 13.523013,14.94401 13.274161,14.728356 11.770719,14.675604 C 10.259077,14.622563 9.5257435,15.170935 9.5360315,16.346656 C 9.5454765,17.426087 9.8328635,17.675134 10.286032,16.9966 C 10.69011,16.391569 11.695719,15.639596 12.520719,15.325548 z M 257.52072,16.096656 C 257.52072,15.271656 257.08484,14.596656 256.5521,14.596656 C 256.01937,14.596656 255.84251,15.271656 256.15909,16.096656 C 256.47568,16.921656 256.91155,17.596656 257.12771,17.596656 C 257.34386,17.596656 257.52072,16.921656 257.52072,16.096656 z M 21.784469,14.892725 C 20.554531,14.655363 18.304531,14.649221 16.784469,14.879075 C 15.264406,15.108929 16.270719,15.303135 19.020719,15.310642 C 21.770719,15.31815 23.014406,15.130087 21.784469,14.892725 z M 53.270719,14.851154 C 47.908219,14.671347 39.133219,14.671347 33.770719,14.851154 C 28.408219,15.030962 32.795719,15.178077 43.520719,15.178077 C 54.245719,15.178077 58.633219,15.030962 53.270719,14.851154 z M 69.770719,14.890923 C 68.533219,14.65257 66.508219,14.65257 65.270719,14.890923 C 64.033219,15.129276 65.045719,15.324292 67.520719,15.324292 C 69.995719,15.324292 71.008219,15.129276 69.770719,14.890923 z M 81.288629,14.88213 C 79.785979,14.653956 77.085979,14.649363 75.288629,14.871925 C 73.491279,15.094486 74.720719,15.281174 78.020719,15.286787 C 81.320719,15.2924 82.791279,15.110304 81.288629,14.88213 z M 92.270719,14.880402 C 90.758219,14.651277 88.283219,14.651277 86.770719,14.880402 C 85.258219,15.109526 86.495719,15.296992 89.520719,15.296992 C 92.545719,15.296992 93.783219,15.109526 92.270719,14.880402 z M 215.34521,14.847053 C 193.52368,14.696785 157.52368,14.696723 135.34521,14.846915 C 113.16674,14.997107 131.02072,15.120053 175.02072,15.120129 C 219.02072,15.120205 237.16674,14.99732 215.34521,14.847053 z"
         style="fill:#000000" />
      <text
         sodipodi:linespacing="125%"
         id="text3286"
         y="504.64795"
         x="14.285713"
         style="font-size:18px;font-style:normal;font-variant:normal;font-weight:normal;font-stretch:normal;text-align:start;line-height:125%;writing-mode:lr-tb;text-anchor:start;fill:#000000;fill-opacity:1;stroke:none;stroke-width:1px;stroke-linecap:butt;stroke-linejoin:miter;stroke-opacity:1;font-family:Bitstream Vera Sans;-inkscape-font-specification:Bitstream Vera Sans"
         xml:space="preserve"><tspan
           y="504.64795"
           x="14.285713"
           id="tspan3288"
           sodipodi:role="line"> var data = JSON.stringify(json);</tspan><tspan
           id="tspan3292"
           y="527.14795"
           x="14.285713"
           sodipodi:role="line"> $.post( &quot;/notes&quot;, {&quot;json&quot;: data}, callback, &quot;json&quot;);</tspan></text>
      <text
         sodipodi:linespacing="125%"
         id="text3397"
         y="266.64941"
         x="14.285713"
         style="font-size:18px;font-style:normal;font-variant:normal;font-weight:normal;font-stretch:normal;text-align:start;line-height:125%;writing-mode:lr-tb;text-anchor:start;fill:#00008b;fill-opacity:1;stroke:none;stroke-width:1px;stroke-linecap:butt;stroke-linejoin:miter;stroke-opacity:1;font-family:Bitstream Vera Sans;-inkscape-font-specification:Bitstream Vera Sans"
         xml:space="preserve"><tspan
           id="tspan3427"
           y="266.64941"
           x="14.285713"
           sodipodi:role="line">{</tspan><tspan
           id="tspan3403"
           y="289.14941"
           x="14.285713"
           sodipodi:role="line">  &quot;action&quot; : &quot;create&quot;,</tspan><tspan
           id="tspan3405"
           y="311.64941"
           x="14.285713"
           sodipodi:role="line">  &quot;doc&quot; : {</tspan><tspan
           id="tspan3407"
           y="334.14941"
           x="14.285713"
           sodipodi:role="line">    &quot;text&quot; : &quot;&quot;,</tspan><tspan
           id="tspan3409"
           y="356.64941"
           x="14.285713"
           sodipodi:role="line">    &quot;x&quot; : 646,</tspan><tspan
           id="tspan3411"
           y="379.14941"
           x="14.285713"
           sodipodi:role="line">    &quot;y&quot; : 144,</tspan><tspan
           id="tspan3413"
           y="401.64941"
           x="14.285713"
           sodipodi:role="line">    &quot;z&quot; : 77,</tspan><tspan
           id="tspan3415"
           y="424.14941"
           x="14.285713"
           sodipodi:role="line">    &quot;color&quot; : &quot;yellow&quot;</tspan><tspan
           id="tspan3417"
           y="446.64941"
           x="14.285713"
           sodipodi:role="line">  }</tspan><tspan
           id="tspan3401"
           y="469.14941"
           x="14.285713"
           sodipodi:role="line">}</tspan></text>
      <text
         sodipodi:linespacing="125%"
         id="text3435"
         y="235.7923"
         x="14.285713"
         style="font-size:18px;font-style:normal;font-variant:normal;font-weight:normal;font-stretch:normal;text-align:start;line-height:125%;writing-mode:lr-tb;text-anchor:start;fill:#000000;fill-opacity:1;stroke:none;stroke-width:1px;stroke-linecap:butt;stroke-linejoin:miter;stroke-opacity:1;font-family:Bitstream Vera Sans;-inkscape-font-specification:Bitstream Vera Sans"
         xml:space="preserve"><tspan
           id="tspan3439"
           y="235.7923"
           x="14.285713"
           sodipodi:role="line"> var json =</tspan></text>
      <rect
         y="30.421711"
         x="9.8489876"
         height="33.335033"
         width="29.546963"
         id="rect6575"
         style="fill:#ffffff;fill-opacity:1;fill-rule:nonzero;stroke:none;stroke-width:10;stroke-linejoin:round;stroke-miterlimit:4;stroke-dasharray:none;stroke-opacity:1" />
      <rect
         y="66.53466"
         x="29.294424"
         height="1.2626907"
         width="0.25253814"
         id="rect6577"
         style="fill:#ffffff;fill-opacity:1;fill-rule:nonzero;stroke:none;stroke-width:10;stroke-linejoin:round;stroke-miterlimit:4;stroke-dasharray:none;stroke-opacity:1" />
      <g
         transform="translate(41.163716,108.08633)"
         id="g6547">
        <g
           transform="translate(-41.668793,-90.913729)"
           id="g6579">
          <path
             style="fill:#d3e5ce"
             d="M 20.978652,52.038755 C 13.272395,50.672063 8.1775233,46.465923 5.9392389,39.622762 C 0.4279952,22.773104 9.7526636,8.5052814 26.275921,8.5052814 C 43.446178,8.5052814 52.057525,21.792745 46.740535,40.082549 C 43.852298,50.017736 34.377523,54.415021 20.978652,52.038755 z M 28.489599,35.755281 C 28.73813,33.595312 29.396052,32.93739 31.556021,32.688859 C 35.388054,32.247935 35.388054,28.762627 31.556021,28.321703 C 29.396052,28.073172 28.73813,27.41525 28.489599,25.255281 C 28.048675,21.423248 24.563367,21.423248 24.122443,25.255281 C 23.873912,27.41525 23.21599,28.073172 21.056021,28.321703 C 19.150885,28.540913 18.306021,29.211759 18.306021,30.505281 C 18.306021,31.798803 19.150885,32.469649 21.056021,32.688859 C 23.21599,32.93739 23.873912,33.595312 24.122443,35.755281 C 24.341653,37.660417 25.012499,38.505281 26.306021,38.505281 C 27.599543,38.505281 28.270389,37.660417 28.489599,35.755281 z"
             id="path6573" />
          <path
             style="fill:#c2dab9"
             d="M 17.806021,51.014806 C 9.2430512,48.012009 3.2488088,37.04095 4.739584,27.099749 C 7.3294999,9.8289524 30.042447,2.3524845 42.10663,14.799562 C 50.209825,23.159937 50.216744,38.560387 42.120954,46.67966 C 36.462636,52.35439 26.62685,54.108027 17.806021,51.014806 z M 29.116598,36.315858 C 29.356623,34.237371 30.038111,33.555883 32.116598,33.315858 C 34.235829,33.071127 34.806021,32.475249 34.806021,30.505281 C 34.806021,28.535313 34.235829,27.939435 32.116598,27.694704 C 30.038111,27.454679 29.356623,26.773191 29.116598,24.694704 C 28.664826,20.78261 23.947216,20.78261 23.495444,24.694704 C 23.255419,26.773191 22.573931,27.454679 20.495444,27.694704 C 18.376213,27.939435 17.806021,28.535313 17.806021,30.505281 C 17.806021,32.489179 18.373734,33.070604 20.556021,33.321703 C 22.654229,33.563129 23.306021,34.175418 23.306021,35.905037 C 23.306021,38.786713 24.20097,39.664476 26.76487,39.297464 C 28.142131,39.100314 28.907037,38.130539 29.116598,36.315858 z"
             id="path6571" />
          <path
             style="fill:#b4d6a9"
             d="M 19.17585,51.537859 C 11.921474,49.343714 5.6550258,41.247702 4.6512842,32.772675 C 3.9806859,27.110522 6.5932998,19.905781 10.977202,15.32785 C 15.059136,11.065251 22.841652,8.1717019 28.440852,8.8348442 C 42.521329,10.502468 50.50683,22.072548 47.346881,36.227525 C 44.641306,48.347134 31.764495,55.345397 19.17585,51.537859 z M 29.301501,36.541756 C 29.662779,35.000515 30.801255,33.860508 32.342496,33.496671 C 35.828473,32.673743 35.801995,28.328362 32.306021,27.51082 C 30.518071,27.092703 29.715898,26.154197 29.489599,24.215735 C 29.227693,21.972268 28.679191,21.505281 26.306021,21.505281 C 23.92159,21.505281 23.385592,21.968281 23.122443,24.255281 C 22.873912,26.41525 22.21599,27.073172 20.056021,27.321703 C 17.752877,27.586709 17.306021,28.114812 17.306021,30.571703 C 17.306021,33.043885 17.70416,33.505281 19.837406,33.505281 C 21.229667,33.505281 22.579667,34.180281 22.837406,35.005281 C 23.095144,35.830281 23.529009,37.211843 23.80155,38.075418 C 24.583949,40.55453 28.625019,39.427677 29.301501,36.541756 z M 22.04889,15.621646 C 24.115312,15.091135 26.706021,14.450127 27.806021,14.197183 C 28.906021,13.944239 28.100594,13.685084 26.016183,13.621283 C 21.42555,13.48077 15.211145,16.474943 12.958776,19.912492 C 10.389101,23.834311 10.989319,23.88865 14.79889,20.079079 C 16.719968,18.158001 19.982468,16.152156 22.04889,15.621646 z"
             id="path6569" />
          <path
             style="fill:#a8d299"
             d="M 18.306021,50.910976 C 6.2170786,45.674665 1.1531891,30.835747 7.8226879,20.191245 C 11.292736,14.653058 18.106893,9.8805712 23.857134,8.9610707 C 35.5784,7.0867647 48.271103,18.173923 48.300444,30.312461 C 48.338063,45.875355 32.22585,56.940334 18.306021,50.910976 z M 23.449199,46.012346 C 13.892059,43.030922 8.4979753,32.839466 12.428208,25.18954 C 17.603917,15.115378 29.228415,12.826615 37.457854,20.261418 C 41.765451,24.153073 42.369949,23.808172 39.154952,19.293124 C 36.687582,15.828022 30.197483,12.549205 25.806021,12.549205 C 15.09411,12.549205 6.7751066,23.537168 9.4482295,34.155014 C 11.309118,41.546604 18.636253,47.476955 25.806021,47.394492 C 26.906021,47.381841 25.845451,46.759875 23.449199,46.012346 z M 29.153414,38.005281 C 29.668352,35.205365 31.243031,33.505281 33.321477,33.505281 C 34.295288,33.505281 35.351065,32.830281 35.667647,32.005281 C 36.521745,29.779538 35.336013,27.505281 33.321477,27.505281 C 31.244255,27.505281 29.670115,25.807197 29.149934,23.005281 C 28.587863,19.977721 24.06441,20.292692 23.328363,23.410641 C 22.767852,25.785001 21.545994,26.8183 17.985884,27.928659 C 15.310603,28.763049 16.19634,32.780403 19.211381,33.48703 C 21.585523,34.043452 22.618706,35.264237 23.729399,38.825418 C 24.500261,41.29701 28.663807,40.667462 29.153414,38.005281 z"
             id="path6567" />
          <path
             style="fill:#a3cc96"
             d="M 18.306021,50.910976 C 10.280672,47.434806 4.9261289,39.286749 4.8962987,30.505281 C 4.8709716,23.049445 8.7798494,16.870345 16.806021,11.678554 C 29.326393,3.5796551 48.262908,14.783584 48.300444,30.312461 C 48.338063,45.875355 32.22585,56.940334 18.306021,50.910976 z M 33.207237,46.056364 C 43.877933,40.538333 46.41156,25.822554 38.075342,17.781508 C 34.141923,13.987366 30.522804,12.505281 25.191261,12.505281 C 20.231921,12.505281 16.490804,14.391858 12.550235,18.879918 C 5.3339917,27.098765 7.7575932,39.540623 17.763402,45.642357 C 21.451517,47.891441 29.254108,48.100607 33.207237,46.056364 z M 21.306021,44.384553 C 19.931021,43.837877 17.561344,42.200334 16.040072,40.745568 C 7.3709436,32.455429 12.650307,18.122517 24.880787,16.743964 C 30.375759,16.124602 34.453239,17.769986 38.310623,22.163304 C 40.845145,25.049965 41.306021,26.403951 41.306021,30.963352 C 41.306021,35.360175 40.808524,36.943072 38.602712,39.56453 C 34.157298,44.847605 27.286481,46.762277 21.306021,44.384553 z M 29.552046,37.664442 C 30.173353,36.018413 31.819153,34.372613 33.465182,33.751306 C 37.373483,32.276087 37.334542,28.719776 33.3938,27.232312 C 31.404162,26.481308 30.303292,25.241638 29.9188,23.319176 C 29.449375,20.972053 28.850083,20.505281 26.306021,20.505281 C 23.729697,20.505281 23.164535,20.962712 22.666941,23.450679 C 22.27841,25.393335 21.38547,26.499778 20.044069,26.700679 C 15.369979,27.400719 15.297441,33.596656 19.955121,34.298226 C 21.039663,34.461587 22.393702,35.899227 23.016129,37.548226 C 24.519861,41.532067 28.068365,41.595163 29.552046,37.664442 z"
             id="path6565" />
          <path
             style="fill:#98c788"
             d="M 17.806021,50.137247 C 12.275559,47.539592 10.581068,45.9117 7.2595482,40.005281 C 4.7264295,35.500818 4.1043842,25.759504 6.1986514,23.391492 C 6.8729314,22.629076 8.2938183,20.538668 9.356178,18.746141 C 10.418538,16.953614 12.754354,14.617798 14.546881,13.555438 C 16.339408,12.493078 18.426869,11.074944 19.185684,10.404028 C 19.944498,9.7331129 23.097967,9.1497729 26.193392,9.1077174 C 35.947211,8.9751986 44.72721,15.766556 47.30056,25.434179 C 49.90014,35.200348 45.304975,45.333623 36.224813,49.858459 C 29.626086,53.146743 24.382286,53.226114 17.806021,50.137247 z M 34.359301,45.977729 C 35.923134,45.169039 38.463396,42.85444 40.004328,40.834175 C 42.470011,37.601497 42.806021,36.302777 42.806021,30.005281 C 42.806021,23.707785 42.470011,22.409065 40.004328,19.176387 C 36.291699,14.30888 31.899968,12.129039 25.806021,12.129039 C 19.738518,12.129039 15.321952,14.306771 11.664452,19.102 C 6.4111644,25.989416 7.6039227,37.945371 14.133415,43.850362 C 19.156363,48.392898 27.908686,49.313471 34.359301,45.977729 z M 18.60457,42.545765 C 13.993386,39.734162 11.978553,35.26511 12.565974,29.151703 C 13.493923,19.494354 23.31738,14.20498 32.654439,18.335205 C 37.839267,20.6287 40.271489,23.828938 41.00906,29.327938 C 41.68747,34.385866 39.131179,39.832186 34.831525,42.489518 C 30.528379,45.149009 22.9173,45.175391 18.60457,42.545765 z M 29.935188,37.609448 C 30.374077,35.415003 31.215743,34.573337 33.410188,34.134448 C 35.845069,33.647471 36.306021,33.069789 36.306021,30.505281 C 36.306021,27.929151 35.848531,27.363783 33.361451,26.866367 C 31.111733,26.416423 30.344807,25.655396 30.111451,23.641367 C 29.846372,21.353541 29.343627,21.005281 26.306021,21.005281 C 23.250604,21.005281 22.76657,21.346902 22.495444,23.694704 C 22.255419,25.773191 21.573931,26.454679 19.495444,26.694704 C 17.147642,26.96583 16.806021,27.449864 16.806021,30.505281 C 16.806021,33.542887 17.154281,34.045632 19.442107,34.310711 C 21.456136,34.544067 22.217163,35.310993 22.667107,37.560711 C 23.164523,40.047791 23.729891,40.505281 26.306021,40.505281 C 28.870529,40.505281 29.448211,40.044329 29.935188,37.609448 z"
             id="path6563" />
          <path
             style="fill:#91ba86"
             d="M 17.400138,49.864891 C 10.026776,46.19059 5.1631641,38.683125 5.1631641,30.975915 C 5.1631641,28.00475 5.6606546,24.995881 6.2686986,24.289539 C 6.8767427,23.583197 8.0317783,22.105281 8.8354446,21.005281 C 10.084832,19.29521 10.079888,19.544242 8.8013386,22.723162 C 6.8197847,27.649997 6.9454744,32.131665 9.2018847,37.005281 C 13.976579,47.318132 24.14628,51.181481 33.983317,46.419453 C 39.080488,43.951955 41.788509,40.468904 43.455444,34.236421 C 45.044355,28.29566 43.479686,22.810149 38.681286,17.498894 C 34.498951,12.86955 29.790725,11.108162 23.272815,11.73445 C 19.023237,12.142781 18.643421,12.025025 19.960825,10.70762 C 22.603809,8.0646361 31.075336,8.8101049 36.806021,12.189947 C 45.51965,17.329069 49.447898,25.82497 47.380946,35.061086 C 45.774969,42.237347 42.294563,46.833774 36.147068,49.8972 C 29.394969,53.261913 24.199103,53.252959 17.400138,49.864891 z M 24.806021,43.749944 C 17.262522,42.404017 12.972688,37.762203 12.972688,30.945687 C 12.972688,23.059298 18.303012,18.069389 26.707535,18.088 C 35.233622,18.106879 40.306021,23.098641 40.306021,31.470306 C 40.306021,38.569979 32.120319,45.054977 24.806021,43.749944 z M 29.075968,40.255281 C 29.634128,39.567781 30.254091,38.125011 30.453664,37.049126 C 30.657402,35.950788 31.910525,34.834713 33.311272,34.504041 C 35.368037,34.018505 35.806021,33.316474 35.806021,30.505281 C 35.806021,27.692938 35.368327,26.992125 33.308118,26.505776 C 31.519243,26.08348 30.664908,25.077211 30.298297,22.960691 C 29.84626,20.350982 29.379275,20.005281 26.306021,20.005281 C 23.219971,20.005281 22.767364,20.345167 22.311094,23.005281 C 21.907149,25.360333 21.216614,26.072315 19.099043,26.317094 C 14.21925,26.881168 14.596359,33.979672 19.543613,34.685443 C 20.845428,34.871158 21.939835,35.843971 22.153414,37.005281 C 22.66719,39.798878 24.241861,41.505281 26.306021,41.505281 C 27.271332,41.505281 28.517808,40.942781 29.075968,40.255281 z M 11.806021,16.505281 C 12.801508,15.405281 13.840996,14.505281 14.115996,14.505281 C 14.390996,14.505281 13.801508,15.405281 12.806021,16.505281 C 11.810535,17.605281 10.771046,18.505281 10.496046,18.505281 C 10.221046,18.505281 10.810535,17.605281 11.806021,16.505281 z"
             id="path6561" />
          <path
             style="fill:#89c376"
             d="M 18.806021,50.127857 C 10.262202,46.098787 5.3060212,38.629123 5.3060212,29.781454 C 5.3060212,22.885779 6.0611073,23.356237 7.3100559,31.030071 C 9.0665245,41.822228 16.139945,48.505281 25.806021,48.505281 C 40.908965,48.505281 49.454764,31.670394 40.666133,19.231446 C 37.256355,14.405432 32.143798,11.556579 25.02785,10.517379 L 19.806021,9.754793 L 26.556021,9.6300372 C 30.268521,9.5614215 33.306021,9.9249569 33.306021,10.437894 C 33.306021,10.95083 34.318521,11.675472 35.556021,12.048208 C 38.714117,12.999428 44.123698,18.353397 46.121713,22.505281 C 49.546111,29.621196 47.265106,40.496443 41.153339,46.193213 C 37.952942,49.176299 30.454305,52.458722 26.806021,52.47355 C 25.156021,52.480256 21.556021,51.424694 18.806021,50.127857 z M 24.806021,43.749944 C 17.262522,42.404017 12.972688,37.762203 12.972688,30.945687 C 12.972688,23.059298 18.303012,18.069389 26.707535,18.088 C 35.233622,18.106879 40.306021,23.098641 40.306021,31.470306 C 40.306021,38.569979 32.120319,45.054977 24.806021,43.749944 z M 29.075968,40.255281 C 29.634128,39.567781 30.254091,38.125011 30.453664,37.049126 C 30.657402,35.950788 31.910525,34.834713 33.311272,34.504041 C 35.368037,34.018505 35.806021,33.316474 35.806021,30.505281 C 35.806021,27.692938 35.368327,26.992125 33.308118,26.505776 C 31.519243,26.08348 30.664908,25.077211 30.298297,22.960691 C 29.84626,20.350982 29.379275,20.005281 26.306021,20.005281 C 23.219971,20.005281 22.767364,20.345167 22.311094,23.005281 C 21.907149,25.360333 21.216614,26.072315 19.099043,26.317094 C 14.21925,26.881168 14.596359,33.979672 19.543613,34.685443 C 20.845428,34.871158 21.939835,35.843971 22.153414,37.005281 C 22.66719,39.798878 24.241861,41.505281 26.306021,41.505281 C 27.271332,41.505281 28.517808,40.942781 29.075968,40.255281 z"
             id="path6559" />
          <path
             style="fill:#85ba75"
             d="M 18.806021,50.127857 C 10.131273,46.037044 5.2394922,38.568298 5.4252213,29.698121 L 5.5444213,24.005281 L 6.754085,30.005281 C 8.6875416,39.595335 11.274307,43.475713 18.006361,46.884692 C 24.343744,50.093817 34.714594,48.136657 39.517883,42.825092 C 44.316324,37.518888 45.517728,28.770267 42.392905,21.889193 C 39.417467,15.337075 32.75112,11.345763 22.806021,10.162027 C 21.156021,9.9656322 22.843521,9.7375211 26.556021,9.6551135 C 30.268521,9.5727058 33.306021,9.9249569 33.306021,10.437894 C 33.306021,10.95083 34.318521,11.675472 35.556021,12.048208 C 38.714117,12.999428 44.123698,18.353397 46.121713,22.505281 C 49.546111,29.621196 47.265106,40.496443 41.153339,46.193213 C 37.952942,49.176299 30.454305,52.458722 26.806021,52.47355 C 25.156021,52.480256 21.556021,51.424694 18.806021,50.127857 z M 20.694138,41.525212 C 17.877921,40.387332 14.593418,36.090276 13.808589,32.516973 C 13.127442,29.41573 14.311389,26.371693 17.605298,22.755281 C 20.232423,19.870938 21.306021,19.907202 21.306021,22.880281 C 21.306021,24.71917 20.628828,25.39072 18.306021,25.855281 C 15.665132,26.383459 15.306021,26.870172 15.306021,29.921264 C 15.306021,33.608385 16.29117,34.726302 19.692003,34.898339 C 21.318351,34.980611 21.878308,35.755003 22.119379,38.255281 C 22.413777,41.308625 22.667109,41.505281 26.306021,41.505281 C 29.943776,41.505281 30.198359,41.30792 30.492663,38.259655 C 30.756165,35.53042 31.283332,34.932219 33.806021,34.499835 C 36.4681,34.043559 36.806021,33.592505 36.806021,30.49546 C 36.806021,27.431367 36.470297,26.966652 34.056021,26.688859 C 31.752877,26.423853 31.306021,25.89575 31.306021,23.438859 C 31.306021,19.583552 33.399245,19.638927 36.717127,23.582006 C 40.706405,28.322993 40.376613,34.634689 35.906021,39.105281 C 32.944803,42.066499 31.880112,42.497101 27.656021,42.441895 C 24.988521,42.407032 21.855674,41.994525 20.694138,41.525212 z"
             id="path6557" />
          <path
             style="fill:#77b268"
             d="M 20.322609,50.825597 C 15.073683,48.540428 12.013495,46.056662 9.8808952,42.350701 L 7.9557692,39.005281 L 10.893383,42.106778 C 18.845526,50.502557 29.801424,51.399266 37.870234,44.314758 C 42.650128,40.117955 44.306021,36.569365 44.306021,30.522822 C 44.306021,24.183972 42.29476,19.248957 38.072012,15.226483 L 34.806021,12.11539 L 38.305046,14.115817 C 40.22951,15.216052 43.11701,18.071163 44.721713,20.460507 C 47.085129,23.979549 47.637774,25.868577 47.631036,30.405026 C 47.616834,39.96612 42.648257,46.897088 32.933897,50.906956 C 28.231488,52.848004 24.918896,52.826633 20.322609,50.825597 z M 31.092713,38.505281 C 31.382346,36.531886 32.110143,35.505281 33.21952,35.505281 C 35.824626,35.505281 37.306021,33.429915 37.306021,29.780281 C 37.306021,26.885837 36.91755,26.377587 34.306021,25.855281 C 32.252688,25.444614 31.306021,24.663614 31.306021,23.380281 C 31.306021,19.960256 35.810832,21.811333 38.142678,26.18954 C 40.537674,30.686315 38.937654,36.609812 34.351912,40.223478 C 31.738771,42.282691 30.624521,41.695277 31.092713,38.505281 z M 17.306021,38.005281 L 14.957393,35.505281 L 18.131707,35.505281 C 20.850975,35.505281 21.306021,35.863662 21.306021,38.005281 C 21.306021,39.380281 20.934462,40.505281 20.480335,40.505281 C 20.026208,40.505281 18.597766,39.380281 17.306021,38.005281 z M 5.6056854,31.505281 C 5.6056854,28.480281 5.793151,27.242781 6.0222756,28.755281 C 6.2514003,30.267781 6.2514003,32.742781 6.0222756,34.255281 C 5.793151,35.767781 5.6056854,34.530281 5.6056854,31.505281 z M 17.306021,24.005281 C 18.911225,22.071128 21.306021,22.071128 21.306021,24.005281 C 21.306021,24.957291 20.347972,25.505281 18.683576,25.505281 C 16.465897,25.505281 16.253276,25.273761 17.306021,24.005281 z M 24.07393,9.7805501 C 25.87128,9.5579887 28.57128,9.562581 30.07393,9.7907551 C 31.57658,10.018929 30.106021,10.201025 26.806021,10.195412 C 23.506021,10.189799 22.27658,10.003111 24.07393,9.7805501 z"
             id="path6555" />
          <path
             style="fill:#69a85b"
             d="M 23.806021,51.505281 C 23.466102,50.955281 22.400553,50.505281 21.438134,50.505281 C 20.475714,50.505281 18.850181,49.892448 17.825838,49.14343 C 16.221631,47.970405 16.649967,47.922222 20.915089,48.795922 C 23.63852,49.35381 27.428111,49.515334 29.336402,49.154864 C 41.454768,46.865741 48.394147,33.457202 43.431263,21.920223 C 41.403549,17.206493 41.398632,17.107628 43.311156,19.505281 C 44.407945,20.880281 45.800477,22.596961 46.40567,23.320125 C 47.010863,24.043289 47.506021,27.225895 47.506021,30.392582 C 47.506021,35.11105 46.932642,37.082054 44.329085,41.313374 C 41.717933,45.557036 40.027318,47.013386 34.836117,49.490917 C 28.305836,52.607533 24.874535,53.234172 23.806021,51.505281 z"
             id="path6553" />
          <path
             style="fill:#57964f"
             d="M 26.118521,51.822167 C 26.840396,51.533296 27.702896,51.568823 28.035188,51.901114 C 28.367479,52.233406 27.776854,52.469755 26.722688,52.426334 C 25.557745,52.37835 25.320788,52.141393 26.118521,51.822167 z M 31.42095,49.125661 C 39.968078,46.071253 44.771677,39.637196 46.297222,29.200021 L 47.056509,24.005281 L 47.181265,30.814298 C 47.260305,35.128214 46.93958,37.396842 46.306021,37.005281 C 45.756021,36.665362 45.306021,37.211275 45.306021,38.21842 C 45.306021,42.799311 35.695779,50.564929 30.154892,50.461388 C 28.299025,50.426708 28.564758,50.146352 31.42095,49.125661 z"
             id="path6551" />
          <path
             style="fill:#458b3b"
             d="M 46.61589,31.005281 C 46.621503,27.705281 46.808191,26.47584 47.030752,28.27319 C 47.253314,30.07054 47.248721,32.77054 47.020547,34.27319 C 46.792373,35.77584 46.610277,34.305281 46.61589,31.005281 z"
             id="path6549" />
        </g>
      </g>
    </g>
    <rect
       style="fill:#ffffff;fill-opacity:1;fill-rule:nonzero;stroke:#000000;stroke-width:2;stroke-linecap:round;stroke-linejoin:round;stroke-miterlimit:4;stroke-dasharray:none;stroke-opacity:1"
       id="rect2383"
       width="218.52995"
       height="211.38708"
       x="846.73505"
       y="17"
       ry="12.121831" />
    <text
       xml:space="preserve"
       style="font-size:48px;font-style:normal;font-variant:normal;font-weight:bold;font-stretch:normal;text-align:start;line-height:125%;writing-mode:lr-tb;text-anchor:start;fill:#000000;fill-opacity:1;stroke:none;stroke-width:1px;stroke-linecap:butt;stroke-linejoin:miter;stroke-opacity:1;font-family:LucasHandFeet;-inkscape-font-specification:LucasHandFeet Semi-Bold"
       x="875.89026"
       y="76.733551"
       id="text2455"
       sodipodi:linespacing="125%"><tspan
         sodipodi:role="line"
         id="tspan2457"
         x="875.89026"
         y="76.733551">Mochiweb</tspan><tspan
         sodipodi:role="line"
         x="875.89026"
         y="136.73355"
         id="tspan2469">stickyNotes</tspan><tspan
         sodipodi:role="line"
         x="875.89026"
         y="196.73355"
         id="tspan2473">Mnesia</tspan></text>
    <text
       xml:space="preserve"
       style="font-size:18px;font-style:normal;font-variant:normal;font-weight:normal;font-stretch:normal;text-align:start;line-height:125%;writing-mode:lr-tb;text-anchor:start;fill:#00008b;fill-opacity:1;stroke:none;stroke-width:1px;stroke-linecap:butt;stroke-linejoin:miter;stroke-opacity:1;font-family:Bitstream Vera Sans;-inkscape-font-specification:Bitstream Vera Sans"
       x="707.67822"
       y="391.97464"
       id="text3443"
       sodipodi:linespacing="125%"><tspan
         sodipodi:role="line"
         x="707.67822"
         y="391.97464"
         id="tspan3463">{struct,[{&lt;&lt;&quot;action&quot;&gt;&gt;, &lt;&lt;&quot;create&quot;&gt;&gt;}, </tspan><tspan
         sodipodi:role="line"
         x="707.67822"
         y="414.47464"
         id="tspan3483">             {&lt;&lt;&quot;doc&quot;&gt;&gt;, </tspan><tspan
         sodipodi:role="line"
         x="707.67822"
         y="436.97464"
         id="tspan3485">               {struct,[{&lt;&lt;&quot;text&quot;&gt;&gt;, &lt;&lt;&gt;&gt;}, </tspan><tspan
         sodipodi:role="line"
         x="707.67822"
         y="459.47464"
         id="tspan3487">                            {&lt;&lt;&quot;x&quot;&gt;&gt;, 646}, </tspan><tspan
         sodipodi:role="line"
         x="707.67822"
         y="481.97464"
         id="tspan3489">                            {&lt;&lt;&quot;y&quot;&gt;&gt;, 144}, </tspan><tspan
         sodipodi:role="line"
         x="707.67822"
         y="504.47461"
         id="tspan3491">                            {&lt;&lt;&quot;z&quot;&gt;&gt;, 77}, </tspan><tspan
         sodipodi:role="line"
         x="707.67822"
         y="526.97461"
         id="tspan3495">                            {&lt;&lt;&quot;color&quot;&gt;&gt;, &lt;&lt;&quot;yellow&quot;&gt;&gt;}]}}]}</tspan></text>
    <text
       xml:space="preserve"
       style="font-size:18px;font-style:normal;font-variant:normal;font-weight:normal;font-stretch:normal;text-align:start;line-height:100%;writing-mode:lr-tb;text-anchor:start;fill:#000000;fill-opacity:1;stroke:none;stroke-width:1px;stroke-linecap:butt;stroke-linejoin:miter;stroke-opacity:1;font-family:Bitstream Vera Sans;-inkscape-font-specification:Bitstream Vera Sans"
       x="773.71918"
       y="257.39178"
       id="text3497"
       sodipodi:linespacing="100%"><tspan
         sodipodi:role="line"
         x="773.71918"
         y="257.39178"
         id="tspan3507"
         style="font-size:18px;font-style:normal;font-variant:normal;font-weight:normal;font-stretch:normal;text-align:start;line-height:100%;writing-mode:lr-tb;text-anchor:start;font-family:Bitstream Vera Sans;-inkscape-font-specification:Bitstream Vera Sans">Data = Req:parse_post(),</tspan><tspan
         sodipodi:role="line"
         x="773.71918"
         y="275.39178"
         style="font-size:18px;font-style:normal;font-variant:normal;font-weight:normal;font-stretch:normal;text-align:start;line-height:100%;writing-mode:lr-tb;text-anchor:start;font-family:Bitstream Vera Sans;-inkscape-font-specification:Bitstream Vera Sans"
         id="tspan3344" /></text>
    <text
       xml:space="preserve"
       style="font-size:40px;font-style:normal;font-weight:normal;line-height:125%;fill:#000000;fill-opacity:1;stroke:none;stroke-width:1px;stroke-linecap:butt;stroke-linejoin:miter;stroke-opacity:1;font-family:Bitstream Vera Sans"
       x="774.19379"
       y="325.28308"
       id="text6413"
       sodipodi:linespacing="125%"><tspan
         sodipodi:role="line"
         id="tspan6415"
         x="774.19379"
         y="325.28308"
         style="font-size:18px;font-weight:bold;-inkscape-font-specification:Bitstream Vera Sans Bold">Struct = mochijson2:decode(Json),</tspan><tspan
         sodipodi:role="line"
         x="774.19379"
         y="347.78308"
         style="font-size:18px;font-style:normal;font-variant:normal;font-weight:normal;font-stretch:normal;text-align:start;line-height:125%;writing-mode:lr-tb;text-anchor:start;font-family:Bitstream Vera Sans;-inkscape-font-specification:Bitstream Vera Sans"
         id="tspan3248">...</tspan></text>
    <text
       xml:space="preserve"
       style="font-size:18px;font-style:normal;font-variant:normal;font-weight:normal;font-stretch:normal;text-align:start;line-height:100%;writing-mode:lr-tb;text-anchor:start;fill:#000000;fill-opacity:1;stroke:none;stroke-width:1px;stroke-linecap:butt;stroke-linejoin:miter;stroke-opacity:1;font-family:Bitstream Vera Sans;-inkscape-font-specification:Bitstream Vera Sans"
       x="776.41742"
       y="257.03802"
       id="text3250"
       sodipodi:linespacing="100%"><tspan
         sodipodi:role="line"
         x="776.41742"
         y="257.03802"
         id="tspan3252" /><tspan
         sodipodi:role="line"
         x="776.41742"
         y="275.03802"
         id="tspan3254" /><tspan
         sodipodi:role="line"
         x="776.41742"
         y="293.03802"
         id="tspan3256"
         style="font-size:18px;font-style:normal;font-variant:normal;font-weight:normal;font-stretch:normal;text-align:start;line-height:100%;writing-mode:lr-tb;text-anchor:start;font-family:Bitstream Vera Sans;-inkscape-font-specification:Bitstream Vera Sans">Json = proplists:get_value(&quot;json&quot;, Data),</tspan></text>
    <text
       xml:space="preserve"
       style="font-size:40px;font-style:normal;font-weight:normal;line-height:125%;fill:#000000;fill-opacity:1;stroke:none;stroke-width:1px;stroke-linecap:butt;stroke-linejoin:miter;stroke-opacity:1;font-family:Bitstream Vera Sans"
       x="839.93304"
       y="587.01648"
       id="text2501"
       sodipodi:linespacing="125%"><tspan
         sodipodi:role="line"
         x="839.93304"
         y="587.01648"
         style="font-size:18px;font-style:normal;font-variant:normal;font-weight:bold;font-stretch:normal;text-align:start;line-height:125%;writing-mode:lr-tb;text-anchor:start;font-family:Bitstream Vera Sans;-inkscape-font-specification:Bitstream Vera Sans Bold"
         id="tspan2505">mochijson2:encode</tspan></text>
  </g>
</svg>
